<?xml version="1.0" encoding="UTF-8"?>
<!DOCTYPE svg PUBLIC "-//W3C//DTD SVG 1.1//EN" "http://www.w3.org/Graphics/SVG/1.1/DTD/svg11.dtd">
<svg xmlns="http://www.w3.org/2000/svg" version="1.1" width="294px" height="78px" style="shape-rendering:geometricPrecision; text-rendering:geometricPrecision; image-rendering:optimizeQuality; fill-rule:evenodd; clip-rule:evenodd" xmlns:xlink="http://www.w3.org/1999/xlink">
<g><path style="opacity:1" fill="#010101" d="M -0.5,-0.5 C 97.5,-0.5 195.5,-0.5 293.5,-0.5C 293.5,25.5 293.5,51.5 293.5,77.5C 195.5,77.5 97.5,77.5 -0.5,77.5C -0.5,51.5 -0.5,25.5 -0.5,-0.5 Z"/></g>
<g><path style="opacity:1" fill="#fefffe" d="M 35.5,24.5 C 36.5,24.5 37.5,24.5 38.5,24.5C 38.5,33.1667 38.5,41.8333 38.5,50.5C 37.5,50.5 36.5,50.5 35.5,50.5C 35.5,41.8333 35.5,33.1667 35.5,24.5 Z"/></g>
<g><path style="opacity:1" fill="#dbdbdb" d="M 48.5,24.5 C 50.7224,24.178 52.5557,24.8446 54,26.5C 57.7541,32.3421 61.7541,38.0087 66,43.5C 66.4995,37.1754 66.6662,30.8421 66.5,24.5C 67.8333,24.5 69.1667,24.5 70.5,24.5C 70.5,33.1667 70.5,41.8333 70.5,50.5C 68.2776,50.822 66.4443,50.1554 65,48.5C 61.2459,42.6579 57.2459,36.9913 53,31.5C 52.5005,37.8246 52.3338,44.1579 52.5,50.5C 51.1667,50.5 49.8333,50.5 48.5,50.5C 48.5,41.8333 48.5,33.1667 48.5,24.5 Z"/></g>
<g><path style="opacity:1" fill="#e7e7e7" d="M 77.5,24.5 C 84.5,24.5 91.5,24.5 98.5,24.5C 98.5,25.5 98.5,26.5 98.5,27.5C 95.8333,27.5 93.1667,27.5 90.5,27.5C 90.5,35.1667 90.5,42.8333 90.5,50.5C 89.1667,50.5 87.8333,50.5 86.5,50.5C 86.5,42.8333 86.5,35.1667 86.5,27.5C 83.5,27.5 80.5,27.5 77.5,27.5C 77.5,26.5 77.5,25.5 77.5,24.5 Z"/></g>
<g><path style="opacity:1" fill="#ebebeb" d="M 106.5,24.5 C 111.833,24.5 117.167,24.5 122.5,24.5C 122.5,25.5 122.5,26.5 122.5,27.5C 118.5,27.5 114.5,27.5 110.5,27.5C 110.5,30.1667 110.5,32.8333 110.5,35.5C 114.167,35.5 117.833,35.5 121.5,35.5C 121.5,36.5 121.5,37.5 121.5,38.5C 117.833,38.5 114.167,38.5 110.5,38.5C 110.5,41.5 110.5,44.5 110.5,47.5C 114.833,47.5 119.167,47.5 123.5,47.5C 123.5,48.5 123.5,49.5 123.5,50.5C 117.833,50.5 112.167,50.5 106.5,50.5C 106.5,41.8333 106.5,33.1667 106.5,24.5 Z"/></g>
<g><path style="opacity:1" fill="#eeeeee" d="M 132.5,24.5 C 137.179,24.3342 141.845,24.5008 146.5,25C 150.861,27.2258 152.361,30.7258 151,35.5C 149.833,38 148,39.8333 145.5,41C 147.5,44 149.5,47 151.5,50C 150.167,50.6667 148.833,50.6667 147.5,50C 145.5,47.3333 143.5,44.6667 141.5,42C 139.527,41.5045 137.527,41.3379 135.5,41.5C 135.5,44.5 135.5,47.5 135.5,50.5C 134.5,50.5 133.5,50.5 132.5,50.5C 132.5,41.8333 132.5,33.1667 132.5,24.5 Z"/></g>
<g><path style="opacity:1" fill="#eeeeee" d="M 167.5,24.5 C 169.144,24.2865 170.644,24.6198 172,25.5C 175.668,33.674 178.835,42.0073 181.5,50.5C 178.344,50.4709 176.678,48.8043 176.5,45.5C 172.205,44.3391 167.871,44.1725 163.5,45C 162.139,46.5843 161.472,48.4176 161.5,50.5C 160.022,50.762 158.689,50.4287 157.5,49.5C 161.123,41.2581 164.456,32.9248 167.5,24.5 Z"/></g>
<g><path style="opacity:1" fill="#e4e4e4" d="M 197.5,23.5 C 205.509,22.8255 210.842,26.1588 213.5,33.5C 212.448,33.6495 211.448,33.4828 210.5,33C 204.411,25.9614 198.245,25.7947 192,32.5C 189.842,42.9998 194.008,47.8331 204.5,47C 206.792,45.7101 208.792,44.0435 210.5,42C 211.448,41.5172 212.448,41.3505 213.5,41.5C 210.874,48.9872 205.541,52.1539 197.5,51C 188.46,46.7516 185.626,39.9183 189,30.5C 191.464,27.519 194.297,25.1856 197.5,23.5 Z"/></g>
<g><path style="opacity:1" fill="#fafafa" d="M 220.5,24.5 C 227.5,24.5 234.5,24.5 241.5,24.5C 241.5,25.5 241.5,26.5 241.5,27.5C 238.5,27.5 235.5,27.5 232.5,27.5C 232.5,35.1667 232.5,42.8333 232.5,50.5C 231.5,50.5 230.5,50.5 229.5,50.5C 229.5,42.8333 229.5,35.1667 229.5,27.5C 226.5,27.5 223.5,27.5 220.5,27.5C 220.5,26.5 220.5,25.5 220.5,24.5 Z"/></g>
<g><path style="opacity:1" fill="#eeeeee" d="M 256.5,24.5 C 257.978,24.238 259.311,24.5713 260.5,25.5C 263.638,33.5811 266.971,41.5811 270.5,49.5C 269.167,50.8333 267.833,50.8333 266.5,49.5C 265.541,45.0238 262.708,43.3571 258,44.5C 253.311,43.7747 250.478,45.6081 249.5,50C 248.167,50.6667 246.833,50.6667 245.5,50C 249.31,41.5475 252.977,33.0475 256.5,24.5 Z"/></g>
<g><path style="opacity:1" fill="#080808" d="M 135.5,27.5 C 139.584,27.0431 143.417,27.7098 147,29.5C 147.944,32.3471 147.444,34.8471 145.5,37C 142.183,37.4983 138.85,37.665 135.5,37.5C 135.5,34.1667 135.5,30.8333 135.5,27.5 Z"/></g>
<g><path style="opacity:1" fill="#121212" d="M 257.5,29.5 C 259.853,33.0356 261.853,36.8689 263.5,41C 260.118,41.8236 256.784,41.657 253.5,40.5C 255.125,36.9205 256.459,33.2538 257.5,29.5 Z"/></g>
<g><path style="opacity:1" fill="#101010" d="M 169.5,29.5 C 171.338,32.9805 173.004,36.6472 174.5,40.5C 171.216,41.657 167.882,41.8236 164.5,41C 166.31,37.2143 167.977,33.381 169.5,29.5 Z"/></g>
</svg>
